<?xml version="1.0" standalone="no"?>
  <!DOCTYPE svg PUBLIC "-//W3C//DTD SVG 1.1//EN" "http://www.w3.org/Graphics/SVG/1.1/DTD/svg11.dtd" >
  <svg>
  <metadata>
  Created by font-carrier
  </metadata>
  <defs>
  <font id="ArteriaDemo" horiz-adv-x="1059" vert-adv-y="1059" >
    <font-face
      
      font-family="ArteriaDemo"
      
      font-weight="400"
      
      font-stretch="normal"
      
      units-per-em="1000"
      
      ascent="750"
      
      descent="-250"
      
    />
      <missing-glyph />

      

      
      <glyph glyph-name="uni44" unicode="&#x44;" d="M343 986Q394 986 439 966.50Q484 947 517.50 914Q551 881 570.50 836Q590 791 590 740L590 246Q590 195 570.50 150Q551 105 517.50 72Q484 39 439 19.50Q394 0 343 0L37 0L37 59Q62 59 79.50 76.50Q97 94 97 118L97 867Q97 892 79.50 909.50Q62 927 37 927L37 986L343 986M472 740Q472 766 462 789.50Q452 813 434.50 830.50Q417 848 393.50 858Q370 868 343 868L215 868L215 118L343 118Q370 118 393.50 128Q417 138 434.50 155.50Q452 173 462 196.50Q472 220 472 246L472 740Z"  horiz-adv-x="630" vert-adv-y="1000"  />

      
      <glyph glyph-name="uni45" unicode="&#x45;" d="M590 986L590 808L530 808Q530 820 520.50 831Q511 842 500 850Q487 860 471 868L215 868L215 552L306 552Q329 554 345.50 571Q362 588 362 611L362 612L421 612L421 374L362 374Q362 399 345 416.50Q328 434 303 434L215 434L215 118L471 118Q487 126 500 136Q511 144 520.50 154.50Q530 165 530 178L590 178L590 0L37 0L37 59Q63 60 79.50 77.50Q96 95 96 118L96 867Q96 892 79 909.50Q62 927 37 927L37 986L590 986Z"  horiz-adv-x="611" vert-adv-y="1000"  />

      
      <glyph glyph-name="uni46" unicode="&#x46;" d="M590 986L590 808L530 808Q530 833 513 850Q496 867 471 867L215 868L215 552L306 552Q329 554 345.50 571Q362 588 362 611L362 612L421 612L421 374L362 374Q362 399 345 416.50Q328 434 303 434L215 434L215 118Q222 101 232 88Q240 77 250.50 68Q261 59 274 59L274 0L37 0L37 59Q62 59 79 76.50Q96 94 96 118L96 867Q96 892 79 909.50Q62 927 37 927L37 986L590 986Z"  horiz-adv-x="599" vert-adv-y="1000"  />

      
      <glyph glyph-name="uni47" unicode="&#x47;" d="M531 740L531 706L413 639Q406 648 400 658Q395 666 388.50 675Q382 684 378 692Q397 701 405 717.50Q413 734 413 742Q414 768 403 791Q392 814 374 831Q356 848 333 858Q310 868 285 868Q258 868 235 858Q212 848 194.50 830.50Q177 813 167 789.50Q157 766 157 740L157 246Q157 220 167 196.50Q177 173 194.50 155.50Q212 138 235 128Q258 118 285 118Q312 118 335 128Q358 138 375.50 155.50Q393 173 403 196.50Q413 220 413 246L413 378Q411 401 394 417.50Q377 434 354 434L354 493L531 493L531 0L413 0L413 36Q385 19 352.50 9.50Q320 0 285 0Q234 0 189 19.50Q144 39 110.50 72Q77 105 57.50 150Q38 195 38 246L38 740Q38 791 57.50 836Q77 881 110.50 914Q144 947 189 966.50Q234 986 285 986Q336 986 381 966.50Q426 947 459 914Q492 881 511.50 836Q531 791 531 740Z"  horiz-adv-x="570" vert-adv-y="1000"  />

      
      <glyph glyph-name="uni48" unicode="&#x48;" d="M649 986L649 927Q624 925 608 909.50Q592 894 590 871L590 115Q592 92 609 75.50Q626 59 649 59L649 0L412 0L412 59L413 59Q436 59 453 75.50Q470 92 472 115L472 434L215 434L215 115Q217 92 234 75.50Q251 59 274 59L275 59L275 0L37 0L37 59Q60 62 74.50 81.50Q89 101 97 118L97 867Q95 884 88 897Q82 908 70 917.50Q58 927 37 927L37 986L275 986L275 927L274 927Q251 927 234 910.50Q217 894 215 871L215 552L472 552L472 871Q470 894 453 910.50Q436 927 413 927L412 927L412 986L649 986Z"  horiz-adv-x="686" vert-adv-y="1000"  />

      
      <glyph glyph-name="uni49" unicode="&#x49;" d="M265 986L265 927L264 927Q241 927 224 910.50Q207 894 205 871L205 115Q207 92 224 75.50Q241 59 264 59L265 59L265 0L27 0L27 59Q54 61 70.50 77Q87 93 87 118L87 867Q86 884 79 897Q73 908 61 917.50Q49 927 27 927L27 986L265 986Z"  horiz-adv-x="292" vert-adv-y="1000"  />

      
      <glyph glyph-name="uni4a" unicode="&#x4a;" d="M559 986L559 927Q536 927 519 910.50Q502 894 500 871L500 246Q500 195 480.50 150Q461 105 427.50 72Q394 39 349 19.50Q304 0 253 0Q202 0 157 19.50Q112 39 79 72Q46 105 26.50 150Q7 195 7 246L7 280L125 347Q133 333 140 322Q142 317 145 312.50Q148 308 150 304Q153 300 155 296Q144 284 134.50 268Q125 252 125 233Q125 208 136 187Q147 166 165 150.50Q183 135 206 126.50Q229 118 253 118Q280 118 303.50 128Q327 138 344.50 155.50Q362 173 372 196.50Q382 220 382 246L382 871Q380 894 363 910.50Q346 927 322 927L322 986L559 986Z"  horiz-adv-x="587" vert-adv-y="1000"  />

      
      <glyph glyph-name="uni4b" unicode="&#x4b;" d="M667 58L667-1L430-1L430 58Q455 58 468.50 71Q482 84 469 118L332 371L215 157L215 115Q216 92 233 75.50Q250 59 274 59L274 0L37 0L37 59Q62 59 79 76.50Q96 94 96 118L96 867Q96 892 79 909.50Q62 927 37 927L37 986L274 986L274 927Q250 927 233 910.50Q216 894 215 871L215 403L470 870Q482 902 468 914.50Q454 927 430 927L430 986L667 986L667 927Q642 927 631 912.50Q620 898 604 867L603 867L400 495L612 103Q624 80 634.50 69Q645 58 667 58Z"  horiz-adv-x="704" vert-adv-y="1000"  />

      
      <glyph glyph-name="uni4c" unicode="&#x4c;" d="M589 0L36 0L36 59Q61 61 77 76.50Q93 92 95 115L96 867Q94 884 88 897Q82 908 70.50 917.50Q59 927 36 927L36 986L273 986L273 927Q250 927 233 910.50Q216 894 214 871L214 118L470 118Q486 126 499 136Q510 144 519.50 154.50Q529 165 529 178L589 178L589 0Z"  horiz-adv-x="598" vert-adv-y="1000"  />

      
      <glyph glyph-name="uni4d" unicode="&#x4d;" d="M786 987L786 927L786 928Q762 928 749.50 918.50Q737 909 732 898Q726 885 726 868L726 119Q727 94 744 77Q761 60 786 60L786 0L549 0L549 60Q572 60 589 76.50Q606 93 608 116L608 650L412 158L216 650L216 116Q218 93 235 76.50Q252 60 275 60L276 60L276 0L38 0L38 60Q60 60 72 69Q84 78 90 89Q97 102 98 119L98 868Q98 893 80.50 910.50Q63 928 38 928L38 927L38 987L216 987L412 495L608 987L786 987Z"  horiz-adv-x="824" vert-adv-y="1000"  />

      
      <glyph glyph-name="uni4e" unicode="&#x4e;" d="M650 987L650 927L650 928Q626 928 609 911.50Q592 895 590 872L590 116Q592 93 609 76.50Q626 60 650 60L650 0L474 0L215 650L215 116Q217 93 233.50 76.50Q250 60 274 60L274 0L37 0L37 60Q64 62 80 78.50Q96 95 96 119L96 868Q94 885 88 898Q82 909 70.50 918.50Q59 928 37 928L37 927L37 987L215 987L472 340L472 868Q471 885 465 898Q460 909 447.50 918.50Q435 928 413 928Q413 927 412 927L412 987L650 987Z"  horiz-adv-x="687" vert-adv-y="1000"  />

      
      <glyph glyph-name="uni4f" unicode="&#x4f;" d="M284 987Q335 987 380 967.50Q425 948 458.50 914.50Q492 881 511.50 836Q531 791 531 740L531 247Q531 196 511.50 151Q492 106 458.50 72.50Q425 39 380 19.50Q335 0 284 0Q233 0 188 19.50Q143 39 110 72.50Q77 106 57.50 151Q38 196 38 247L38 740Q38 791 57.50 836Q77 881 110 914.50Q143 948 188 967.50Q233 987 284 987M412 740Q412 767 402 790.50Q392 814 374.50 831.50Q357 849 334 859Q311 869 284 869Q257 869 234 859Q211 849 193.50 831.50Q176 814 166 790.50Q156 767 156 740L156 247Q156 220 166 197Q176 174 193.50 156.50Q211 139 234 129Q257 119 284 119Q311 119 334 129Q357 139 374.50 156.50Q392 174 402 197Q412 220 412 247L412 740Z"  horiz-adv-x="569" vert-adv-y="1000"  />

      
      <glyph glyph-name="uni50" unicode="&#x50;" d="M341 987Q392 987 437 967.50Q482 948 515 914.50Q548 881 567.50 836Q587 791 587 740Q587 689 567.50 644Q548 599 515 566Q482 533 437 513.50Q392 494 341 494L213 494L213 119Q213 94 230 77Q247 60 272 60L272 0L35 0L35 60Q58 60 70 69Q82 78 87 89Q93 102 94 119L94 868Q94 893 77 910.50Q60 928 35 928L35 927L35 987L341 987M341 612Q368 612 391 622Q414 632 431.50 649.50Q449 667 459 690.50Q469 714 469 740Q469 767 459 790.50Q449 814 431.50 831.50Q414 849 391 859Q368 869 341 869L213 869L213 612L341 612Z"  horiz-adv-x="596" vert-adv-y="1000"  />

      
      <glyph glyph-name="uni52" unicode="&#x52;" d="M534 101Q546 80 557 69.50Q568 59 588 59L588 0L351 0L351 59Q379 59 388.50 68Q398 77 399 88Q400 101 391 118L252 375L214 375L214 119Q213 102 219 89Q224 78 236 69Q248 60 273 60L273 0L36 0L36 60Q59 60 71.50 69Q84 78 89 89Q95 102 95 119L95 872Q93 895 76 911.50Q59 928 36 928L36 927L36 987L342 987Q393 987 438 967.50Q483 948 516 914.50Q549 881 568.50 836Q588 791 588 740L588 622Q588 576 572.50 535Q557 494 529.50 462Q502 430 465 408Q428 386 385 379L534 101M214 493L342 493Q368 493 391.50 503Q415 513 432.50 530.50Q450 548 460 571.50Q470 595 470 622L470 740Q470 767 460 790.50Q450 814 432.50 831.50Q415 849 391.50 859Q368 869 342 869L214 869L214 493Z"  horiz-adv-x="623" vert-adv-y="1000"  />

      
      <glyph glyph-name="uni51" unicode="&#x51;" d="M531 116Q533 93 550 76.50Q567 60 591 60L591 0L285 0Q234 0 189 19.50Q144 39 110.50 72.50Q77 106 57.50 151Q38 196 38 247L38 740Q38 791 57.50 836Q77 881 110.50 914.50Q144 948 189 967.50Q234 987 285 987Q336 987 381 967.50Q426 948 459 914.50Q492 881 511.50 836Q531 791 531 740L531 116M157 247Q157 220 167 197Q177 174 194.50 156.50Q212 139 235 129Q258 119 285 119Q310 119 333 128.50Q356 138 373 154.50Q390 171 400.50 193Q411 215 413 240L413 740Q413 767 403 790.50Q393 814 375.50 831.50Q358 849 335 859Q312 869 285 869Q258 869 235 859Q212 849 194.50 831.50Q177 814 167 790.50Q157 767 157 740L157 247Z"  horiz-adv-x="618" vert-adv-y="1000"  />

      
      <glyph glyph-name="uni53" unicode="&#x53;" d="M524 740L400 669L370 720Q384 731 390 740.50Q396 750 399 762Q404 787 393 806.50Q382 826 363 840Q344 854 320.50 861.50Q297 869 277 869Q251 869 227.50 859Q204 849 186.50 831.50Q169 814 159 790.50Q149 767 149 740Q149 714 159 690.50Q169 667 186.50 649.50Q204 632 227.50 622Q251 612 277 612Q328 612 373 592.50Q418 573 451.50 539.50Q485 506 504.50 461Q524 416 524 365L524 247Q524 196 504.50 151Q485 106 451.50 72.50Q418 39 373 19.50Q328 0 277 0Q229 0 185 18.50Q141 37 106 70Q83 91 69 115Q55 139 46.50 166Q38 193 34.50 222Q31 251 30 280L149 348L179 297Q167 288 160.50 276.50Q154 265 151.50 254.50Q149 244 149.50 235Q150 226 151 220Q161 176 196.50 147.50Q232 119 277 119Q304 119 327 129Q350 139 367.50 156.50Q385 174 395 197Q405 220 405 247L405 365Q405 392 395 415.50Q385 439 367.50 456.50Q350 474 327 484Q304 494 277 494Q226 494 181 513.50Q136 533 103 566Q70 599 50.50 644Q31 689 31 740Q31 791 50.50 836Q70 881 103 914.50Q136 948 181 967.50Q226 987 277 987Q328 987 373 967.50Q418 948 451.50 914.50Q485 881 504.50 836Q524 791 524 740Z"  horiz-adv-x="556" vert-adv-y="1000"  />

      
      <glyph glyph-name="uni54" unicode="&#x54;" d="M21 987L574 987L574 809L515 809Q515 832 505.50 844Q496 856 485 861Q472 867 455 868L357 868L357 116Q359 93 375.50 76.50Q392 60 416 60L416 0L179 0L179 60Q211 60 224.50 76.50Q238 93 238 119L238 868L140 868Q115 868 97.50 851Q80 834 80 809L21 809L21 987Z"  horiz-adv-x="595" vert-adv-y="1000"  />

      
      <glyph glyph-name="uni55" unicode="&#x55;" d="M640 987L640 927L640 928Q616 928 599.50 911.50Q583 895 581 872L581 247Q581 196 561.50 151Q542 106 508.50 72.50Q475 39 430 19.50Q385 0 334 0Q283 0 238 19.50Q193 39 160 72.50Q127 106 107.50 151Q88 196 88 247L88 872Q86 895 69 911.50Q52 928 28 928L28 927L28 987L265 987L265 927L265 928Q242 928 225 911.50Q208 895 206 872L206 247Q206 220 216 197Q226 174 243.50 156.50Q261 139 284.50 129Q308 119 334 119Q361 119 384 129Q407 139 424.50 156.50Q442 174 452 197Q462 220 462 247L462 872Q460 895 443.50 911.50Q427 928 403 928L403 927L403 987L640 987Z"  horiz-adv-x="669" vert-adv-y="1000"  />

      
      <glyph glyph-name="uni56" unicode="&#x56;" d="M611 985L611 925Q588 925 573 911Q558 897 552 874L373 0L373-2L255-2L255 0L75 875Q70 897 54.50 911Q39 925 17 925L16 925L16 985L254 985L254 925L253 925Q223 925 210.50 915.50Q198 906 195 895Q191 882 198 866L314 301L430 866Q436 895 417.50 910Q399 925 374 925L374 985L611 985Z"  horiz-adv-x="627" vert-adv-y="1000"  />

      
      <glyph glyph-name="uni57" unicode="&#x57;" d="M978 985L978 925Q955 925 939.50 911Q924 897 919 874L740 0L739-2L622-2L621 0L501 584L382 0L381-2L264-2L263 0L84 875Q78 897 63 911Q48 925 25 925L25 985L262 985L262 925Q234 925 222 915.50Q210 906 207 895Q203 882 207 866L323 301L438 866Q444 895 426 910Q408 925 383 925L383 985L620 985L620 925Q595 925 577 910Q559 895 564 866L680 301L796 866Q802 895 784 910Q766 925 741 925L741 985L978 985Z"  horiz-adv-x="1003" vert-adv-y="1000"  />

      
      <glyph glyph-name="uni58" unicode="&#x58;" d="M702 985L702 925Q678 925 666.50 910.50Q655 896 639 866L436 491L647 101Q660 78 670.50 67.50Q681 57 702 57L702-3L465-3L465 57L466 57Q478 57 488 60Q498 63 504 69.50Q510 76 510.50 87.50Q511 99 505 116L369 367L233 116Q227 99 227.50 87.50Q228 76 234 69.50Q240 63 250.50 60Q261 57 273 57L273-3L36-3L36 57Q57 57 67.50 67.50Q78 78 91 101L302 491L99 866Q91 881 84.50 892Q78 903 71 910.50Q64 918 56 921.50Q48 925 36 925L36 985L273 985L273 925Q243 923 233 907.50Q223 892 233 866L369 615L505 866Q511 883 510.50 894.50Q510 906 504 912.50Q498 919 488 922Q478 925 466 925L465 925L465 985L702 985Z"  horiz-adv-x="738" vert-adv-y="1000"  />

      
      <glyph glyph-name="uni59" unicode="&#x59;" d="M683 985L683 925Q671 925 662.50 921.50Q654 918 647.50 910.50Q641 903 634.50 892Q628 881 620 866L409 476L409 113Q411 89 427.50 73Q444 57 468 57L468-3L231-3L231 57Q255 57 272 73Q289 89 290 113L290 476L79 866Q63 896 52 910.50Q41 925 16 925L16 985L253 985L253 925Q241 925 230.50 922Q220 919 214 912.50Q208 906 207.50 894.50Q207 883 214 866L350 615L485 866Q498 900 484.50 912.50Q471 925 446 925L446 985L683 985Z"  horiz-adv-x="699" vert-adv-y="1000"  />

      
      <glyph glyph-name="uni5a" unicode="&#x5a;" d="M535 866L210 116L416 116Q441 116 458 133Q475 150 475 175L535 175L535-3L42-3L42 116L366 866L160 866Q136 866 118.50 848.50Q101 831 101 807L42 807L42 985L535 985L535 866Z"  horiz-adv-x="557" vert-adv-y="1000"  />

      
      <glyph glyph-name="uni61" unicode="&#x61;" d="M523 118Q523 94 540 76.50Q557 59 582 59L582 0L404 0L404 36Q376 19 343.50 9.50Q311 0 276 0Q225 0 180 19.50Q135 39 101.50 72Q68 105 48.50 150Q29 195 29 246Q29 297 48.50 342Q68 387 101.50 420.50Q135 454 180 473.50Q225 493 276 493Q311 493 343.50 483.50Q376 474 404 457L404 506L523 506L523 118M276 118Q310 118 334.50 128.50Q359 139 374.50 157Q390 175 397 198Q404 221 404 246Q404 273 394 296.50Q384 320 366.50 337.50Q349 355 326 365Q303 375 276 375Q249 375 226 365Q203 355 185.50 337.50Q168 320 158 296.50Q148 273 148 246Q148 220 158 196.50Q168 173 185.50 155.50Q203 138 226 128Q249 118 276 118Z"  horiz-adv-x="616" vert-adv-y="1000"  />

      
      <glyph glyph-name="uni62" unicode="&#x62;" d="M342 493Q393 493 438 473.50Q483 454 516 420.50Q549 387 568.50 342Q588 297 588 246Q588 195 568.50 150Q549 105 516 72Q483 39 438 19.50Q393 0 342 0Q307 0 274.50 9.50Q242 19 214 36L214 0L36 0L36 59Q61 59 78 76.50Q95 94 95 118L95 781Q95 806 78 823Q61 840 36 840L36 899L214 899L214 457Q242 474 274.50 483.50Q307 493 342 493M342 118Q371 118 395.50 130.50Q420 143 437.50 164Q455 185 463 212.50Q471 240 468 270Q466 292 454 311.50Q442 331 424 345Q406 359 384.50 367Q363 375 342 375Q314 375 287.50 361Q261 347 242.50 323.50Q224 300 217 268.50Q210 237 221 202Q233 164 267.50 141Q302 118 342 118Z"  horiz-adv-x="597" vert-adv-y="1000"  />

      
      <glyph glyph-name="uni63" unicode="&#x63;" d="M148 235Q148 210 158.50 188.50Q169 167 186 151.50Q203 136 226 127Q249 118 275 118Q300 118 321.50 126.50Q343 135 360 150L473 99Q439 54 387.50 27Q336 0 275 0Q236 0 199 12Q162 24 130 48Q80 86 54 137.50Q28 189 31 252Q33 287 40.50 321Q48 355 69 384Q92 414 122.50 439.50Q153 465 188 478Q208 486 231 489.50Q254 493 275 493Q336 493 387.50 466Q439 439 473 394L360 343Q343 358 321.50 366.50Q300 375 275 375Q244 375 220 364Q196 353 180 334Q164 315 156 289.50Q148 264 148 235Z"  horiz-adv-x="499" vert-adv-y="1000"  />

      
      <glyph glyph-name="uni64" unicode="&#x64;" d="M561 899L561 840Q538 840 520.50 823.50Q503 807 502 781L502 118Q502 94 519.50 76.50Q537 59 561 59L561 0L384 0L384 36Q325 0 255 0Q204 0 159 19.50Q114 39 81 72Q48 105 28.50 150Q9 195 9 246Q9 297 28.50 342Q48 387 81 420.50Q114 454 159 473.50Q204 493 255 493Q325 493 384 457L384 899L561 899M384 246Q384 273 374 296.50Q364 320 346.50 337.50Q329 355 305.50 365Q282 375 255 375Q229 375 205.50 365Q182 355 164.50 337.50Q147 320 137 296.50Q127 273 127 246Q127 220 137 196.50Q147 173 164.50 155.50Q182 138 205.50 128Q229 118 255 118Q282 118 305.50 128Q329 138 346.50 155.50Q364 173 374 196.50Q384 220 384 246Z"  horiz-adv-x="597" vert-adv-y="1000"  />

      
      <glyph glyph-name="uni65" unicode="&#x65;" d="M522 192L160 192Q175 160 206 139Q237 118 276 118Q300 118 321.50 126.50Q343 135 360 150L474 99Q440 54 388.50 27Q337 0 276 0Q225 0 180 19.50Q135 39 101.50 72Q68 105 48.50 150Q29 195 29 246Q29 297 48.50 342Q68 387 101.50 420.50Q135 454 180 473.50Q225 493 276 493Q319 493 357.50 479.50Q396 466 427.50 441.50Q459 417 481 383.50Q503 350 514 311Q518 296 520 280Q522 264 522 246L522 192M387 311Q370 340 340.50 357.50Q311 375 276 375Q240 375 211 357.50Q182 340 165 311L387 311Z"  horiz-adv-x="547" vert-adv-y="1000"  />

      
      <glyph glyph-name="uni66" unicode="&#x66;" d="M311 170L311 52L153 52L153-247L35-247L35 248Q35 299 54.50 343.50Q74 388 107.50 421.50Q141 455 185.50 474Q230 493 281 493Q289 493 295.50 492.50Q302 492 310 491L310 371Q303 373 296 374Q289 375 281 375Q255 375 231.50 365Q208 355 190.50 337.50Q173 320 163 296.50Q153 273 153 247L153 170L311 170Z"  horiz-adv-x="325" vert-adv-y="1000"  />

      
      <glyph glyph-name="uni67" unicode="&#x67;" d="M399 506L517 506L517 0Q517-51 497.50-96Q478-141 444.50-174.50Q411-208 366-227.50Q321-247 270-247Q209-247 158-220Q107-193 73-147L186-96Q221-128 270-128Q322-128 349-108Q376-88 387-64Q400-36 399 0L399 36Q340 0 270 0Q219 0 174 19.50Q129 39 96 72Q63 105 43.50 150Q24 195 24 246Q24 297 43.50 342Q63 387 96 420.50Q129 454 174 473.50Q219 493 270 493Q340 493 399 457L399 506M399 246Q399 273 389 296.50Q379 320 361.50 337.50Q344 355 320.50 365Q297 375 270 375Q244 375 220.50 365Q197 355 179.50 337.50Q162 320 152 296.50Q142 273 142 246Q142 220 152 196.50Q162 173 179.50 155.50Q197 138 220.50 128Q244 118 270 118Q297 118 320.50 128Q344 138 361.50 155.50Q379 173 389 196.50Q399 220 399 246Z"  horiz-adv-x="555" vert-adv-y="1000"  />

      
      <glyph glyph-name="uni68" unicode="&#x68;" d="M648 59L648 0L410 0L410 59Q435 59 452.50 76.50Q470 94 470 118L470 246Q470 273 460 296.50Q450 320 432.50 337.50Q415 355 391.50 365Q368 375 342 375Q315 375 291.50 365Q268 355 250.50 337.50Q233 320 223 296.50Q213 273 213 246L213 118Q213 94 230.50 76.50Q248 59 273 59L273 0L36 0L36 59Q60 59 77.50 76.50Q95 94 95 118L95 119L95 781Q94 807 76.50 823.50Q59 840 36 840L36 899L213 899L213 457Q272 493 342 493Q393 493 438 473.50Q483 454 516 420.50Q549 387 568.50 342Q588 297 588 246L588 118Q588 94 605.50 76.50Q623 59 648 59Z"  horiz-adv-x="655" vert-adv-y="1000"  />

      
      <glyph glyph-name="uni69" unicode="&#x69;" d="M22 0L22 59Q47 59 64 76.50Q81 94 81 118L81 374Q81 399 64 416.50Q47 434 22 434L22 493L200 493L200 118Q200 94 217 76.50Q234 59 259 59L259 0L22 0M141 562Q116 562 98.50 579.50Q81 597 81 622Q81 646 98.50 663.50Q116 681 141 681Q165 681 182.50 663.50Q200 646 200 622Q200 597 182.50 579.50Q165 562 141 562Z"  horiz-adv-x="279" vert-adv-y="1000"  />

      
      <glyph glyph-name="uni6a" unicode="&#x6a;" d="M286 493L286 434Q261 434 243.50 417Q226 400 226 375L226 0Q226-42 212.50-80Q199-118 175.50-149Q152-180 119.50-203Q87-226 48-237L48-112Q71-99 84-80Q97-61 102-43Q108-22 108 0L108 375Q107 391 101 404Q96 415 83.50 424.50Q71 434 48 434L48 493L286 493M167 563Q142 563 125 580Q108 597 108 622Q108 647 125 664Q142 681 167 681Q192 681 209 664Q226 647 226 622Q226 597 209 580Q192 563 167 563Z"  horiz-adv-x="325" vert-adv-y="1000"  />

      
      <glyph glyph-name="uni6b" unicode="&#x6b;" d="M365 493L502 493L502 433Q480 433 458 421.50Q436 410 419 397L250 246L405 106Q413 99 424 91Q435 83 448 76Q461 69 474.50 64Q488 59 502 59L502-1L365-1L211 139L211 0L33 0L33 59Q58 59 75 76.50Q92 94 92 118L92 781Q92 797 86 810Q81 821 68.50 830.50Q56 840 33 840L33 899L211 899L211 353L365 493Z"  horiz-adv-x="510" vert-adv-y="1000"  />

      
      <glyph glyph-name="uni6c" unicode="&#x6c;" d="M265 59L265 0L27 0L27 59Q52 59 69.50 76.50Q87 94 87 118L87 781Q87 806 69.50 823Q52 840 27 840L27 899L205 899L205 115Q207 92 224 75.50Q241 59 264 59L265 59Z"  horiz-adv-x="284" vert-adv-y="1000"  />

      
      <glyph glyph-name="uni6d" unicode="&#x6d;" d="M1027 59L1027 0L790 0L790 59Q815 59 832.50 76.50Q850 94 850 118L850 246Q850 273 840 296.50Q830 320 812.50 337.50Q795 355 771.50 365Q748 375 721 375Q695 375 671.50 365Q648 355 630.50 337.50Q613 320 603 296.50Q593 273 593 246L593 118Q593 94 610.50 76.50Q628 59 653 59L653 0L415 0L415 59Q440 59 457.50 76.50Q475 94 475 118L475 246Q475 273 465 296.50Q455 320 437.50 337.50Q420 355 396.50 365Q373 375 347 375Q320 375 296.50 365Q273 355 255.50 337.50Q238 320 228 296.50Q218 273 218 246L218 118Q218 94 235.50 76.50Q253 59 278 59L278 0L41 0L41 59Q63 59 75.50 68Q88 77 93 88Q99 101 100 118L100 374Q98 391 92 404Q86 415 74.50 424.50Q63 434 41 434L41 493L218 493L218 457Q277 493 347 493Q404 493 452 470Q500 447 534 407Q568 447 616 470Q664 493 721 493Q772 493 817 473.50Q862 454 895.50 420.50Q929 387 948.50 342Q968 297 968 246L968 118Q968 94 985.50 76.50Q1003 59 1027 59Z"  horiz-adv-x="1059" vert-adv-y="1000"  />

      
      <glyph glyph-name="uni6e" unicode="&#x6e;" d="M652 59L652 0L414 0L414 59Q439 59 456.50 76.50Q474 94 474 118L474 246Q474 273 464 296.50Q454 320 436.50 337.50Q419 355 395.50 365Q372 375 346 375Q319 375 295.50 365Q272 355 254.50 337.50Q237 320 227 296.50Q217 273 217 246L217 118Q217 94 234.50 76.50Q252 59 277 59L277 0L40 0L40 59Q64 59 81.50 76.50Q99 94 99 118L99 374Q98 391 92 404Q87 415 75 424.50Q63 434 40 434L40 493L217 493L217 457Q276 493 346 493Q397 493 442 473.50Q487 454 520 420.50Q553 387 572.50 342Q592 297 592 246L592 119Q593 93 610 76.50Q627 60 652 59Z"  horiz-adv-x="678" vert-adv-y="1000"  />

      
      <glyph glyph-name="uni6f" unicode="&#x6f;" d="M279 500Q331 500 376.50 480.50Q422 461 456 427Q490 393 509.50 347.50Q529 302 529 250Q529 198 509.50 152.50Q490 107 456 73Q422 39 376.50 19.50Q331 0 279 0Q227 0 181.50 19.50Q136 39 102 73Q68 107 48.50 152.50Q29 198 29 250Q29 302 48.50 347.50Q68 393 102 427Q136 461 181.50 480.50Q227 500 279 500M279 129Q304 129 326 138.50Q348 148 364.50 164.50Q381 181 390.50 203Q400 225 400 250Q400 275 390.50 297Q381 319 364.50 335.50Q348 352 326 361.50Q304 371 279 371Q254 371 232 361.50Q210 352 193.50 335.50Q177 319 167.50 297Q158 275 158 250Q158 225 167.50 203Q177 181 193.50 164.50Q210 148 232 138.50Q254 129 279 129Z"  horiz-adv-x="558" vert-adv-y="1000"  />

      
      <glyph glyph-name="uni70" unicode="&#x70;" d="M289 493Q340 493 385 473.50Q430 454 463 421Q496 388 515.50 343Q535 298 535 247Q535 196 515.50 151Q496 106 463 72.50Q430 39 385 19.50Q340 0 289 0Q219 0 160 36L160-247L42-247L42 507L160 507L160 457Q219 493 289 493M289 118Q312 118 337 128Q360 137 376.50 153Q393 169 402.50 189Q412 209 414.50 232.50Q417 256 413 279Q409 300 397 317.50Q385 335 367.50 347.50Q350 360 329.50 367.50Q309 375 289 375Q263 375 238 365Q215 355 198 337.50Q181 320 171 298Q161 276 160 251.50Q159 227 167 203Q181 165 215 141.50Q249 118 289 118Z"  horiz-adv-x="544" vert-adv-y="1000"  />

      
      <glyph glyph-name="uni71" unicode="&#x71;" d="M504-128Q504-145 510-158Q515-169 527.50-178Q540-187 564-187L564-247L386-247L386 36Q358 19 325.50 9.50Q293 0 258 0Q207 0 162 19.50Q117 39 83.50 72.50Q50 106 30.50 151Q11 196 11 247Q11 298 30.50 343Q50 388 83.50 421Q117 454 162 473.50Q207 493 258 493Q293 493 325.50 483.50Q358 474 386 457L386 507L504 507L504-128M258 118Q285 118 308 128Q331 138 348.50 155.50Q366 173 376 196.50Q386 220 386 247Q386 273 376 296.50Q366 320 348.50 337.50Q331 355 308 365Q285 375 258 375Q231 375 208 365Q185 355 167.50 337.50Q150 320 140 296.50Q130 273 130 247Q130 220 140 196.50Q150 173 167.50 155.50Q185 138 208 128Q231 118 258 118Z"  horiz-adv-x="596" vert-adv-y="1000"  />

      
      <glyph glyph-name="uni72" unicode="&#x72;" d="M345 493Q352 493 359 493Q366 493 373 492L373 372Q359 375 345 375Q319 375 299.50 369.50Q280 364 266.50 355Q253 346 244 334.50Q235 323 229 311Q216 283 217 247L217 119Q217 94 234 76.50Q251 59 276 59L276 0L39 0L39 59Q64 59 81 76.50Q98 94 98 118L98 119L98 375Q98 399 81 416.50Q64 434 39 434L39 493L217 493L217 457Q245 474 277.50 483.50Q310 493 345 493Z"  horiz-adv-x="395" vert-adv-y="1000"  />

      
      <glyph glyph-name="uni73" unicode="&#x73;" d="M365 351Q362 362 353 368.50Q344 375 333 375L185 375Q171 375 161 363Q151 351 151 337Q151 323 161 315Q171 307 185 307L333 307Q364 307 392 294.50Q420 282 440.50 260Q461 238 473 209.50Q485 181 485 150Q485 118 473 90.50Q461 63 440.50 42.50Q420 22 392 10Q364-2 333-2L333 0L185 0Q153 0 125.50 12Q98 24 77.50 44.50Q57 65 45 92.50Q33 120 33 152L151 152Q151 138 161 127Q171 116 185 116L333 116Q347 116 357 126Q367 136 367 150Q367 164 357 174.50Q347 185 333 185L185 185Q153 185 125.50 197Q98 209 77.50 229.50Q57 250 45 277.50Q33 305 33 337Q33 368 45 396.50Q57 425 77.50 446.50Q98 468 125.50 480.50Q153 493 185 493L333 493Q385 493 425 462.50Q465 432 479 384L365 351Z"  horiz-adv-x="517" vert-adv-y="1000"  />

      
      <glyph glyph-name="uni74" unicode="&#x74;" d="M236 433L236 238Q237 213 248 191Q259 169 276 153Q293 137 315.50 127.50Q338 118 364 118Q372 118 378.50 119Q385 120 392 122L392 2Q385 1 378.50 0.50Q372 0 364 0Q314 0 270 18.50Q226 37 192.50 69.50Q159 102 139 145Q119 188 118 238L117 433L10 433L10 551L117 551L117 746L236 746L236 551L392 551L392 433L236 433Z"  horiz-adv-x="414" vert-adv-y="1000"  />

      
      <glyph glyph-name="uni75" unicode="&#x75;" d="M638 492L638 433Q615 433 602.50 423.50Q590 414 585 403Q579 390 579 374L579 118Q579 93 596.50 75.50Q614 58 638 58L638-1L461-1L461 35Q402-1 332-1Q281-1 236 18.50Q191 38 158 71.50Q125 105 105.50 150Q86 195 86 246L86 374Q87 390 81 403Q76 414 63.50 423.50Q51 433 26 433L26 492L204 493L204 246Q204 219 214 196Q224 173 241.50 155.50Q259 138 282.50 128Q306 118 332 118Q359 118 382.50 128Q406 138 423.50 155.50Q441 173 451 196Q461 219 461 246L461 374Q461 390 455 403Q450 414 437 423.50Q424 433 401 433L401 492L638 492Z"  horiz-adv-x="679" vert-adv-y="1000"  />

      
      <glyph glyph-name="uni76" unicode="&#x76;" d="M626 492L626 433Q602 433 585.50 418Q569 403 558 377L395 0L394 0L270 0L109 374Q101 390 89 403Q78 414 60.50 423.50Q43 433 17 433L17 492L188 492L332 148L432 381Q440 407 426 420Q412 433 389 433L389 492L626 492Z"  horiz-adv-x="645" vert-adv-y="1000"  />

      
      <glyph glyph-name="uni77" unicode="&#x77;" d="M977 492L977 433Q954 433 937 418Q920 403 909 377L746 0L622 0L621 0L512 253L403 0L402 0L278 0L117 374Q109 390 97 403Q86 414 68.50 423.50Q51 433 25 433L25 492L196 492L340 148L440 381Q448 407 434 420Q420 433 397 433L397 492L539 492L684 148L784 381Q791 407 777 420Q763 433 740 433L740 492L977 492Z"  horiz-adv-x="1004" vert-adv-y="1000"  />

      
      <glyph glyph-name="uni78" unicode="&#x78;" d="M701 493L701 434Q679 434 657.50 422Q636 410 619 397L450 246L605 106Q612 99 623.50 91Q635 83 647.50 76Q660 69 674 64Q688 59 701 59L701 0L386 0L386 59Q409 59 419 68Q429 77 433 88Q437 101 435 118L371 176L306 118Q301 107 304.50 96.50Q308 86 316 77.50Q324 69 334.50 64Q345 59 356 59L356 0L40 0L40 59Q53 59 67 64Q81 69 94 76Q107 83 117.50 91Q128 99 136 106L292 246L123 397Q106 410 84 422Q62 434 40 434L40 493L356 493L356 434Q346 434 335.50 428.50Q325 423 317.50 415Q310 407 306.50 396.50Q303 386 308 375L371 318L434 375Q438 386 435 396.50Q432 407 424.50 415Q417 423 406.50 428.50Q396 434 386 434L386 493L701 493Z"  horiz-adv-x="742" vert-adv-y="1000"  />

      
      <glyph glyph-name="uni79" unicode="&#x79;" d="M635 493L635 434Q611 433 593.50 416Q576 399 576 374L576-1Q576-52 556.50-97Q537-142 503.50-175Q470-208 425-227.50Q380-247 329-247Q268-247 217-220Q166-193 132-147L245-96Q280-128 329-128Q377-128 402.50-108Q428-88 441-64Q455-36 458 0L458 36Q399 0 329 0Q278 0 233 19.50Q188 39 155 72.50Q122 106 102.50 151Q83 196 83 247L83 374Q80 391 73 404Q67 415 55 424.50Q43 434 23 434L23 493L201 493L201 247Q201 220 211 196.50Q221 173 238.50 155.50Q256 138 279.50 128Q303 118 329 118Q356 118 379.50 128Q403 138 420.50 155.50Q438 173 448 196.50Q458 220 458 247L458 374Q458 399 440.50 416Q423 433 398 434L398 493L635 493Z"  horiz-adv-x="662" vert-adv-y="1000"  />

      
      <glyph glyph-name="uni7a" unicode="&#x7a;" d="M234 98L358 98Q382 98 399.50 115.50Q417 133 417 158L476 158L476 0L41 0L41 59Q48 59 58 66.50Q68 74 77 84Q86 94 93.50 103.50Q101 113 104 117L284 394L160 394Q143 387 130 377Q119 369 110 358Q101 347 101 335L41 335L41 493L476 493L476 434Q469 434 459.50 426Q450 418 440.50 408Q431 398 423.50 388Q416 378 413 375L234 98Z"  horiz-adv-x="518" vert-adv-y="1000"  />

      
      <glyph glyph-name="uni31" unicode="&#x31;" d="M289 0L51 0L51 59L52 59Q75 59 87 68Q99 77 104 88Q110 101 111 118L111 780L51 780L51 840Q72 840 84 849Q96 858 102 869Q109 882 111 899L229 899L229 115Q231 92 248 75.50Q265 59 289 59L289 0Z"  horiz-adv-x="334" vert-adv-y="1000"  />

      
      <glyph glyph-name="uni32" unicode="&#x32;" d="M549 118L549 0L56 0L56 118Q56 152 70.50 189.50Q85 227 108.50 264.50Q132 302 162 338.50Q192 375 224 408Q298 485 392 561Q430 597 430 653Q430 679 420 702.50Q410 726 392.50 743.50Q375 761 352 771Q329 781 302 781Q276 781 252.50 771Q229 761 211.50 743.50Q194 726 184 702.50Q174 679 174 653L56 653Q56 704 75.50 749Q95 794 128 827Q161 860 206 879.50Q251 899 302 899Q353 899 398 879.50Q443 860 476.50 827Q510 794 529.50 749Q549 704 549 653Q549 601 529.50 556Q510 511 476 477Q393 414 336 366Q279 318 244 277Q209 236 194 198Q179 160 179 118L549 118Z"  horiz-adv-x="617" vert-adv-y="1000"  />

      
      <glyph glyph-name="uni33" unicode="&#x33;" d="M540 291L540 246Q540 195 520.50 150Q501 105 467.50 72Q434 39 389 19.50Q344 0 293 0Q242 0 197 19.50Q152 39 119 72Q86 105 66.50 150Q47 195 47 246L47 280L165 280L165 246Q165 220 175 196.50Q185 173 202.50 155.50Q220 138 243.50 128Q267 118 293 118Q320 118 343.50 128Q367 138 384.50 155.50Q402 173 412 196.50Q422 220 422 246L422 291Q422 318 412 341.50Q402 365 384.50 382.50Q367 400 343.50 410Q320 420 293 420L293 538Q320 538 343.50 548Q367 558 384.50 575.50Q402 593 412 616.50Q422 640 422 666Q422 693 412 713Q402 733 384.50 747Q367 761 343.50 768Q320 775 293 775Q267 775 243.50 765Q220 755 202.50 737.50Q185 720 175 697Q165 674 165 647L165 613L47 613L47 647Q47 698 66.50 743Q86 788 119 821.50Q152 855 197 874.50Q242 894 293 894Q344 894 389 877.50Q434 861 467.50 831Q501 801 520.50 759Q540 717 540 666Q540 609 517 561Q494 513 454 479Q494 445 517 396.50Q540 348 540 291Z"  horiz-adv-x="589" vert-adv-y="1000"  />

      
      <glyph glyph-name="uni34" unicode="&#x34;" d="M466 899L466 0L348 0L348 232L49 232L49 351L348 899L466 899M348 652L184 351L348 351L348 652Z"  horiz-adv-x="519" vert-adv-y="1000"  />

      
      <glyph glyph-name="uni35" unicode="&#x35;" d="M544 393L544 246Q544 195 524.50 150Q505 105 471.50 72Q438 39 393 19.50Q348 0 297 0Q246 0 201 19.50Q156 39 122.50 72Q89 105 69.50 150Q50 195 50 246L50 291L169 291L169 246Q169 220 179 196.50Q189 173 206.50 155.50Q224 138 247 128Q270 118 297 118Q324 118 347 128Q370 138 387.50 155.50Q405 173 415 196.50Q425 220 425 246L425 393Q425 443 405 469.50Q385 496 361 507Q333 520 297 521L50 521L50 899L544 899L544 781L169 781L169 639L297 639Q348 639 393 619.50Q438 600 471.50 567Q505 534 524.50 489Q544 444 544 393Z"  horiz-adv-x="601" vert-adv-y="1000"  />

      
      <glyph glyph-name="uni36" unicode="&#x36;" d="M293 538Q357 538 403.50 518.50Q450 499 480.50 465.50Q511 432 525.50 387Q540 342 540 291L540 246Q540 195 520.50 150Q501 105 467.50 72Q434 39 389 19.50Q344 0 293 0Q242 0 197 19.50Q152 39 119 72Q86 105 66.50 150Q47 195 47 246L47 666Q47 717 66.50 759Q86 801 119 831Q152 861 197 877.50Q242 894 293 894Q344 894 389 877.50Q434 861 467.50 831Q501 801 520.50 759Q540 717 540 666L422 666Q422 693 412 713Q402 733 384.50 747Q367 761 343.50 768Q320 775 293 775Q267 775 243.50 768Q220 761 202.50 747Q185 733 175 713Q165 693 165 666L165 502Q194 519 228 528.50Q262 538 293 538M422 291Q422 318 414 341.50Q406 365 389.50 382.50Q373 400 349 410Q325 420 293 420Q261 420 237.50 410Q214 400 197.50 382.50Q181 365 173 341.50Q165 318 165 291L165 246Q165 220 175 196.50Q185 173 202.50 155.50Q220 138 243.50 128Q267 118 293 118Q320 118 343.50 128Q367 138 384.50 155.50Q402 173 412 196.50Q422 220 422 246L422 291Z"  horiz-adv-x="601" vert-adv-y="1000"  />

      
      <glyph glyph-name="uni37" unicode="&#x37;" d="M541 653Q541 601 521.50 556Q502 511 468 477Q367 400 308 342.50Q249 285 218.50 242Q188 199 179.50 169Q171 139 171 118L171 0L48 0L48 118Q48 152 62.50 189.50Q77 227 100.50 264.50Q124 302 154 338.50Q184 375 216 408Q290 485 384 561Q422 597 422 653L422 775L48 775L48 894L541 894L541 653Z"  horiz-adv-x="599" vert-adv-y="1000"  />

      
      <glyph glyph-name="uni38" unicode="&#x38;" d="M451 479Q491 445 514.50 396.50Q538 348 538 291L538 246Q538 195 518.50 150Q499 105 465.50 72Q432 39 387 19.50Q342 0 291 0Q240 0 195 19.50Q150 39 116.50 72Q83 105 63.50 150Q44 195 44 246L44 291Q44 348 67.50 396.50Q91 445 131 479Q91 513 67.50 561Q44 609 44 666Q44 717 63.50 759Q83 801 116.50 831Q150 861 195 877.50Q240 894 291 894Q342 894 387 877.50Q432 861 465.50 831Q499 801 518.50 759Q538 717 538 666Q538 609 514.50 561Q491 513 451 479M291 775Q264 775 241 768Q218 761 200.50 747Q183 733 173 713Q163 693 163 666Q163 640 173 616.50Q183 593 200.50 575.50Q218 558 241 548Q264 538 291 538Q318 538 341 548Q364 558 381.50 575.50Q399 593 409 616.50Q419 640 419 666Q419 693 409 713Q399 733 381.50 747Q364 761 341 768Q318 775 291 775M419 291Q419 318 409 341.50Q399 365 381.50 382.50Q364 400 341 410Q318 420 291 420Q264 420 241 410Q218 400 200.50 382.50Q183 365 173 341.50Q163 318 163 291L163 246Q163 220 173 196.50Q183 173 200.50 155.50Q218 138 241 128Q264 118 291 118Q318 118 341 128Q364 138 381.50 155.50Q399 173 409 196.50Q419 220 419 246L419 291Z"  horiz-adv-x="599" vert-adv-y="1000"  />

      
      <glyph glyph-name="uni39" unicode="&#x39;" d="M290 894Q341 894 386 874.50Q431 855 464.50 821.50Q498 788 517.50 743Q537 698 537 647L537 227Q537 176 517.50 134Q498 92 464.50 62.50Q431 33 386 16.50Q341 0 290 0Q239 0 194 16.50Q149 33 116 62.50Q83 92 63.50 134Q44 176 44 227L162 227Q162 200 172 180Q182 160 199.50 146Q217 132 240.50 125Q264 118 290 118Q317 118 340 125Q363 132 380.50 146Q398 160 408 180Q418 200 418 227L418 391Q404 382 391.50 375.50Q379 369 364.50 364.50Q350 360 332 357.50Q314 355 290 355Q235 355 189.50 374.50Q144 394 112 427.50Q80 461 62 506Q44 551 44 602L44 647Q44 698 63.50 743Q83 788 116 821.50Q149 855 194 874.50Q239 894 290 894M418 647Q418 674 408 697Q398 720 380.50 737.50Q363 755 340 765Q317 775 290 775Q264 775 240.50 765Q217 755 199.50 737.50Q182 720 172 697Q162 674 162 647L162 602Q162 575 169.50 551.50Q177 528 192.50 510.50Q208 493 232 483Q256 473 290 473Q324 473 348.50 483Q373 493 388.50 510.50Q404 528 411 551.50Q418 575 418 602L418 647Z"  horiz-adv-x="591" vert-adv-y="1000"  />

      
      <glyph glyph-name="uni30" unicode="&#x30;" d="M293 894Q344 894 389 874.50Q434 855 467 821.50Q500 788 519.50 743Q539 698 539 647L539 227Q539 176 519.50 134Q500 92 467 62.50Q434 33 389 16.50Q344 0 293 0Q242 0 197 16.50Q152 33 118.50 62.50Q85 92 65.50 134Q46 176 46 227L46 647Q46 698 65.50 743Q85 788 118.50 821.50Q152 855 197 874.50Q242 894 293 894M421 647Q421 674 411 697Q401 720 383.50 737.50Q366 755 342.50 765Q319 775 293 775Q266 775 243 765Q220 755 202.50 737.50Q185 720 175 697Q165 674 165 647L165 227Q165 200 175 180Q185 160 202.50 146Q220 132 243 125Q266 118 293 118Q319 118 342.50 125Q366 132 383.50 146Q401 160 411 180Q421 200 421 227L421 647Z"  horiz-adv-x="596" vert-adv-y="1000"  />

      
      <glyph glyph-name="uni21" unicode="&#x21;" d="M196 82Q196 48 172.50 24Q149 0 115 0Q81 0 57 24Q33 48 33 82Q33 116 57 139.50Q81 163 115 163Q149 163 172.50 139.50Q196 116 196 82M174 215L56 215L56 898L174 898L174 215Z"  horiz-adv-x="249" vert-adv-y="1000"  />

      
      <glyph glyph-name="uni22" unicode="&#x22;" d="M61 741Q77 756 89 770Q99 782 106.50 796Q114 810 109 821Q75 821 51.50 845Q28 869 28 903Q28 937 51.50 960.50Q75 984 109 984Q143 984 167 960.50Q191 937 191 903Q194 867 183 835Q173 808 145.50 781Q118 754 61 741M384 903Q384 937 360.50 960.50Q337 984 303 984Q269 984 245 960.50Q221 937 221 903Q221 869 245 845Q269 821 303 821Q307 810 300.50 796Q294 782 283 770Q271 756 254 741Q311 754 338.50 781Q366 808 376 835Q387 867 384 903Z"  horiz-adv-x="438" vert-adv-y="1000"  />

      
      <glyph glyph-name="uni41" unicode="&#x41;" d="M582 118Q590 101 600 88Q608 77 618.50 68Q629 59 642 59L642 0L405 0L405 59Q429 59 446.50 76Q464 93 464 118L464 400L208 400L208 118Q215 101 225 88Q233 77 244 68Q255 59 267 59L267 0L30 0L30 59Q54 59 70.50 75.50Q87 92 89 115L89 740Q89 791 108.50 836Q128 881 161.50 914Q195 947 240 966.50Q285 986 336 986Q387 986 432 966.50Q477 947 510 914Q543 881 562.50 836Q582 791 582 740L582 118M464 519L464 740Q464 766 454 789.50Q444 813 426.50 830.50Q409 848 386 858Q363 868 336 868Q309 868 286 858Q263 848 245.50 830.50Q228 813 218 789.50Q208 766 208 740L208 519L464 519Z"  horiz-adv-x="672" vert-adv-y="1000"  />

      
      <glyph glyph-name="uni42" unicode="&#x42;" d="M476 573Q527 540 558.50 485.50Q590 431 590 365L590 246Q590 195 570.50 150Q551 105 517.50 72Q484 39 439 19.50Q394 0 343 0L37 0L37 59Q62 59 79.50 76.50Q97 94 97 118L97 867Q97 892 79.50 909.50Q62 927 37 927L37 986L294 986Q345 986 390 966.50Q435 947 468 914Q501 881 520.50 836Q540 791 540 740Q540 691 523 648.50Q506 606 476 573M215 612L302 612Q327 613 349 624Q371 635 387 652Q403 669 412.50 691.50Q422 714 422 740Q422 766 412 789.50Q402 813 384.50 830.50Q367 848 343.50 858Q320 868 294 868L215 868L215 612M472 365Q472 392 462 415Q452 438 434.50 455.50Q417 473 393.50 483Q370 493 343 493L215 493L215 118L343 118Q370 118 393.50 128Q417 138 434.50 155.50Q452 173 462 196.50Q472 220 472 246L472 365Z"  horiz-adv-x="621" vert-adv-y="1000"  />

      
      <glyph glyph-name="uni43" unicode="&#x43;" d="M532 740L532 706Q526 703 512 695Q499 688 476 674.50Q453 661 414 639Q405 653 399 664Q393 674 388.50 681.50Q384 689 384 690Q399 701 405 711Q411 721 413 727Q415 738 413 751.50Q411 765 409 776Q404 796 392 813Q381 828 364.50 840.50Q348 853 330 860Q308 868 286 868Q259 868 236 858Q213 848 195.50 830.50Q178 813 168 789.50Q158 766 158 740L158 246Q158 220 168 196.50Q178 173 195.50 155.50Q213 138 236 128Q259 118 286 118Q305 118 323.50 124Q342 130 358 141.50Q374 153 386.50 168.50Q399 184 406 202Q413 221 409 236.50Q405 252 397.50 263.50Q390 275 382 280.50Q374 286 374 286L414 347L532 280L532 246Q532 195 512.50 150Q493 105 460 72Q427 39 382 19.50Q337 0 286 0Q235 0 190 19.50Q145 39 111.50 72Q78 105 58.50 150Q39 195 39 246L39 740Q39 791 58.50 836Q78 881 111.50 914Q145 947 190 966.50Q235 986 286 986Q337 986 382 966.50Q427 947 460 914Q493 881 512.50 836Q532 791 532 740Z"  horiz-adv-x="562" vert-adv-y="1000"  />

      

  </font>
</defs>
</svg>
